name new_emg_signals
nRows=53
nColumns=7
 
endheader
time	RGLTMED	RRF	RADDLONG	RBF	RTA	RGM
1.7199999999999616	0.8112096380327025	0.7523754364540268	0.9241448809345756	0.2715919889476058	0.0829584834195696	0.1030537399981937
1.7299999999999631	0.8096713110842249	0.7473906092685411	0.9270679253724866	0.2647623821743001	0.0827853375876741	0.1101162140956669
1.7399999999999611	0.8082067931036854	0.7425060573689952	0.9299589135048048	0.2579295073708619	0.0828245237426818	0.1174575393727501
1.7499999999999627	0.8068176110314341	0.7377265821613677	0.932815791603023	0.2510972276116491	0.0830759908795602	0.1250757198527148
1.7599999999999607	0.8055052693143308	0.7330567854814094	0.9356365121812474	0.2442693247859456	0.0835394933849469	0.1329684496887078
1.7699999999999623	0.8042712487913254	0.7285010631262034	0.9384190383509018	0.237449497471952	0.0842145918100765	0.1411331110421016
1.7799999999999603	0.8031170054331839	0.724063598729754	0.9411613481106116	0.2306413591309585	0.0851006538310361	0.149566772279836
1.7899999999999618	0.8020439689259905	0.7197483579941905	0.943861438550991	0.2238484366216076	0.0861968553960778	0.1582661865010856
1.7999999999999599	0.8010535410869886	0.7155590832872555	0.9465173299578132	0.2170741690332242	0.0875021820596431	0.1672277904037538
1.8099999999999614	0.8001470941009772	0.7114992886158642	0.9491270698014332	0.210321906836287	0.0890154305027297	0.1764477035014442
1.8199999999999594	0.7993259685649442	0.7075722549843365	0.9516887366036042	0.2035949113472197	0.0907352102391804	0.1859217277017361
1.829999999999961	0.7985914713307191	0.7037810261447741	0.9542004436750284	0.196896354503869	0.0926599455074219	0.1956453472568136
1.839999999999959	0.7979448731377619	0.700128404745713	0.95666034271704	0.1902293189472327	0.0947878773470803	0.2056137290977987
1.8499999999999606	0.797387406032571	0.696616948883887	0.9590666272806708	0.1835967984042665	0.0971170658598117	0.215821723564398
1.8599999999999586	0.7969202605743166	0.6932489690632118	0.9614175360751545	0.1770016983659001	0.0996453926536233	0.226263865541626
1.8699999999999601	0.796544582828303	0.6900265255653297	0.963711356116886	0.1704468370537224	0.1023705634699443	0.2369343760153012
1.8799999999999581	0.7962614711507872	0.6869514262368253	0.9659464257093224	0.1639349466681787	0.1052901109927054	0.2478271640577544
1.8899999999999597	0.7960719727688387	0.6840252246988996	0.9681211372439562	0.1574686749105626	0.1084013978386786	0.2589358292547353
1.8999999999999577	0.7959770801597438	0.6812492189854692	0.9702339398120942	0.1510505867705967	0.1117016197282665	0.2702536645841009
1.9099999999999593	0.7959777272363819	0.6786244506152184	0.9722833416165052	0.1446831665709313	0.1151878088358654	0.2817736597564821
1.9199999999999573	0.7960747853472343	0.6761517041028453	0.974267912170178	0.1383688202594848	0.1188568373188423	0.2934885050279018
1.9299999999999589	0.7962690591042955	0.6738315069151173	0.9761862842675878	0.1321098779401576	0.1227054210241155	0.3053905954941774
1.9399999999999569	0.7965612820570338	0.6716641298774476	0.9780371557116152	0.1259085966321006	0.1267301233712965	0.3174720358767712
1.9499999999999584	0.7969521122349139	0.6696495880367568	0.979819290777246	0.1197671632473576	0.1309273594113595	0.3297246458095497
1.9599999999999564	0.7974421275838043	0.6677876419856186	0.981531521392874	0.1136876977763279	0.135293400059818	0.3421399656356935
1.969999999999958	0.7980318213236015	0.6660777996520943	0.9831727480236798	0.1076722566701208	0.1398243765033771	0.3547092627236613
1.979999999999956	0.7987215972552388	0.6645193185588965	0.984741940247671	0.1017228364085028	0.1445162847789743	0.3674235383107982
1.9899999999999576	0.7995117650473088	0.6631112085547605	0.9862381370234334	0.0958413772417772	0.1493649905239747	0.3802735348827223
1.9999999999999556	0.8004025355326899	0.6618522350199441	0.9876604466549844	0.0900297670945789	0.1543662338960712	0.3932497440959767
2.009999999999957	0.8013940160460308	0.6607409225463089	0.9890080464646228	0.0842898456192074	0.1595156346611967	0.4063424152504603
2.019999999999955	0.802486205831396	0.6597755590907581	0.9902801821884356	0.0786234083857798	0.164808697447508	0.4195415643169391
2.0299999999999567	0.8036789915479495	0.6589542005990314	0.9914761671125316	0.0730322111961508	0.1702408171632785	0.4328369835236197
2.0399999999999547	0.8049721428997623	0.65827467609469	0.9925953809699672	0.06751797450823	0.1758072845763015	0.4462182515043523
2.0499999999999563	0.8063653084142297	0.6577345932259197	0.9936372686193504	0.0620823879570389	0.1815032920521608	0.4596747440096196
2.0599999999999543	0.8078580113910268	0.6573313442604803	0.9946013385261246	0.0567271149585546	0.1873239394484384	0.473195645179946
2.069999999999956	0.809449646042101	0.6570621125170004	0.9954871610684214	0.0514537973821314	0.1932642401615749	0.4867699593798776
2.079999999999954	0.8111394738404877	0.6569238792184747	0.9962943666914296	0.0462640602770327	0.1993191273226684	0.5003865235891237
2.0899999999999554	0.8129266200937739	0.6569134307518361	0.9970226439368576	0.0411595166383691	0.2054834601380137	0.5140340203459297
2.0999999999999535	0.8148100707559557	0.6570273663153923	0.9976717373756704	0.0361417721975275	0.2117520303697188	0.5277009912361381
2.109999999999955	0.8167886694895926	0.6572621059339754	0.9982414454728368	0.0312124302219902	0.2181195689513115	0.5413758509197344
2.119999999999953	0.8188611149884877	0.6576138988197484	0.99873161841266	0.0263730963092562	0.2245807527329231	0.5550469016849858
2.1299999999999546	0.8210259585711284	0.6580788320548244	0.9991421559126564	0.0216253831594526	0.2311302113503339	0.5687023485185718
2.1399999999999526	0.8232816020548921	0.6586528395700488	0.9994730050528932	0.0169709153110803	0.2377625342119161	0.582330314678398
2.149999999999954	0.8256262959217118	0.6593317113930269	0.999724158146239	0.0124113338242837	0.2444722775973389	0.5959188577539811
2.159999999999952	0.8280581377864357	0.6601111031373612	0.9998956506726095	0.0079483008959767	0.2512539718619112	0.6094559861973124
2.1699999999999537	0.8305750711789152	0.6609865457044111	0.9999875592983676	0.0035835043911767	0.258102128740549	0.6229296763050166
2.1799999999999518	0.833174884650772	0.6619534551687654	1.0	0.0006813377250891	0.2650112487454703	0.6363278896304057
2.1899999999999533	0.8358552112170868	0.66300714281796	0.999933126310092	0.0048444730708799	0.2719758286517686	0.649638590801859
2.1999999999999513	0.838613528143363	0.6641428253166948	0.9997871277018652	0.0089041106609127	0.2789903690650006	0.6628497657217994
2.209999999999953	0.8414471570875843	0.6653556349650517	0.9995622281273308	0.0128584168659096	0.2860493820648175	0.6759494401183705
2.219999999999951	0.8443532646070617	0.6666406300194708	0.9992586847216074	0.0167055115327022	0.2931473989184411	0.6889256984197698
2.2299999999999525	0.8473288630385705	0.6679928050450815	0.9988767866840836	0.0204434642796982	0.3002789778573966	0.7017667029189482
2.2399999999999505	0.8503708117591848	0.6694071012682601	0.998416854345311	0.0240702909818907	0.3074387119103351	0.7144607131941091
